<svg xmlns="http://www.w3.org/2000/svg" height="800" width="1200" version="1.0" viewBox="-110.4351 -42.8185 957.1042 256.911"><path d="M266.204 72.163h23.068c6.425 0 11.607 1.571 15.547 4.713 3.94 3.113 6.75 7.218 6.75 12.317 0 3.35-.07 9.783-2.022 12.807-1.917 2.994-4.827 5.232-8.732 6.714-3.905 1.482-8.148 2.253-10.917 2.312l-9.933.178v19.342h-13.761zm13.548 12.453v15.118h8.422c2.52 0 4.667-.756 6.442-2.268 1.81-1.511 2.716-3.305 2.716-5.38 0-2.371-1.012-4.21-3.035-5.513-2.024-1.305-4.125-1.958-7.853-1.958zm39.716-12.453h37.394v11.56h-23.715V94.33h23.01v12.56h-23.01v10.657h23.715v12.999h-37.394zm50.245 0h23.962c6.274 0 10.203 1.55 13.84 4.624 3.656 3.091 4.915 7.982 5.494 12.495.405 3.16.173 6.206-1.515 9.437-1.656 3.231-6.651 6.753-11.293 7.836l18.288 23.99H401.91l-17.149-23.235h-1.529v23.236h-13.519zm13.615 11.366v15.078h4.879c7.038 0 10.557-3.515 10.557-8.88 0-5.989-6.418-6.167-10.366-6.198zm35.755-11.366h44.821v12.642h-15.279v45.74H434.26v-45.74h-15.177zm61.674 0h14.325l19.739 58.383h-14.497l-3.766-10.526h-17.713l-4.448 10.526h-13.531zm6.988 18.78l-6.438 18.067h11.934zm41.227-18.78h13.392l10.949 32.412 11.913-32.412h13.293l7.685 58.383H573.03l-3.895-33.094-13.174 33.092h-5.424L538.13 96.847l-5.693 33.697-12.195.002zm66.188 0h13.865v58.383H595.16zm65.92.32h12.644v58.063h-14.008l-24.41-34.583v34.583h-13.675V72.483h13.063l26.386 35.933zm41.091-.32h14.324l19.74 58.383h-14.498l-3.766-10.526H700.26l-4.448 10.526H682.28zm6.988 18.78l-6.438 18.067h11.934z" font-weight="700" font-size="66.496" font-family="Tw Cen MT" letter-spacing="0" word-spacing="0" fill="#082313"/><path d="M0 171.274s46.217-73.516 53.748-85.703c7.53-12.19 14.018-13.334 34.822-13.334h45.853c-2.703 2.268-7.326 7.004-10.785 12.57L77 159.846c-4.663 8.385-14.524 11.427-26.357 11.427z" fill="#006cb8"/><path d="M182.572 72.237c-20.804 0-27.328 1.144-35.254 13.334a59953.9 59953.9 0 00-29.217 45.028h53.32c9.31 0 18.371-4.088 22.273-10.845l31.503-47.517z" fill="#acc42a"/><path d="M160.726 0c20.804 0 27.327 1.144 35.253 13.334a60855.45 60855.45 0 0129.218 45.028h-53.321c-9.31 0-18.37-4.088-22.272-10.845L118.1 0z" fill="#ed1b2f"/></svg>